PathFileType	4	(X/Y/Z)	32_2_81_p0_0-153_filt_butterworth.trc
DataRate	CameraRate	NumFrames	NumMarkers	Units	OrigDataRate	OrigDataStartFrame	OrigNumFrames
60.0	60.0	6	27	m	60.0	76	153
Frame#	Time	RHip			RKnee			RAnkle			RBigToe			RSmallToe			RHeel			LHip			LKnee			LAnkle			LBigToe			LSmallToe			LHeel			Neck			Head			Nose			RShoulder			RElbow			RWrist			RThumb			RIndex			RPinky			LShoulder			LElbow			LWrist			LThumb			LIndex			LPinky			
		X1	Y1	Z1	X2	Y2	Z2	X3	Y3	Z3	X4	Y4	Z4	X5	Y5	Z5	X6	Y6	Z6	X7	Y7	Z7	X8	Y8	Z8	X9	Y9	Z9	X10	Y10	Z10	X11	Y11	Z11	X12	Y12	Z12	X13	Y13	Z13	X14	Y14	Z14	X15	Y15	Z15	X16	Y16	Z16	X17	Y17	Z17	X18	Y18	Z18	X19	Y19	Z19	X20	Y20	Z20	X21	Y21	Z21	X22	Y22	Z22	X23	Y23	Z23	X24	Y24	Z24	X25	Y25	Z25	X26	Y26	Z26	X27	Y27	Z27	
76	1.2666666666666666	0.333387381361959	0.9626969277424536	0.41607299031939426	0.32709674463296334	0.5393109236644223	0.48566519538809527	0.3155583128901818	0.10501620810457953	0.5160562799209121	0.3106544345090384	0.1012051402454432	0.34089161803646023	0.3725214331876058	0.10652127532918623	0.34543892884765126	0.29593180197771135	0.01667798580536812	0.598655667429637	0.1295534892933028	0.959017814157735	0.4534655438140281	0.1329719004697402	0.5258205454678745	0.5062016041187509	0.14502413447872065	0.08775475854806926	0.5099538874248815	0.1610993445470265	0.09818446532959081	0.34138736972318	0.09944908168533081	0.07701846806931607	0.39392438632024906	0.15776208555213597	0.023632929162082143	0.5643934677140534	0.24503132518922427	1.5403155848283794	0.4407654763430534	0.23944013241770495	1.773204595730924	0.4307173712887856	0.22011508518430511	1.6698866449136989	0.34734911716412137	0.3872032850672995	1.4523130363151995	0.4289301427312031	0.3983979728322141	1.233520033564854	0.3829944082929787	0.27277720269287187	1.016131355134656	0.31069721839117886	0.2100183398910314	0.9074524580406841	0.3235018548687164	0.21169583674570197	0.9031522364456344	0.3245642784555118	0.22406733623980868	0.923931811029102	0.32192322843580523	0.07794590395598633	1.4632420373094852	0.4339721621446319	0.08336543029342455	1.2212872944757802	0.3901392336518657	0.22219791544391893	1.0419776897803588	0.2937354505328258	0.22390579277731973	0.9386956558113501	0.2776158726491196	0.22092920375290712	0.9010267051102753	0.28138770101034755	0.21471354183676905	0.9233843332664456	0.30381809934004894	
77	1.2833333333333334	0.33337087392096254	0.9622964762068039	0.41695085625202405	0.3271412842821307	0.5398500467435701	0.48559156869793824	0.31557261404863746	0.10505256247211242	0.5162231278069812	0.3106780917342615	0.10108743657897071	0.3408178680144036	0.3725389968217357	0.10648892102457849	0.3453847870714391	0.2958998872631668	0.01701692922649361	0.5985520159347326	0.1293129269051125	0.9593264514493508	0.4531325255868763	0.13296387517778685	0.5259177571260354	0.5061330322776504	0.14510880028119863	0.08820281909904415	0.5099285019595663	0.1603969496948432	0.09680306379697239	0.3434183217730773	0.09944644594373733	0.07702933347185857	0.3938744273451704	0.1577892385835755	0.02356521571471456	0.5645273530732047	0.2449098963898184	1.5406302685496316	0.4406446856406185	0.23867307469921117	1.773239419919634	0.4303161906601988	0.220860803259033	1.670441480194364	0.34768437575389893	0.38719781105752593	1.4523050743781687	0.42896436066093846	0.39833576382126734	1.2339115027508198	0.38239043437958825	0.273097786205941	1.0165211576598634	0.30908276090791376	0.21047177225309124	0.9077170561184272	0.3236799593648339	0.21164614515510555	0.9035222471171939	0.3246721004600458	0.225020627300609	0.9248679290799107	0.3195901173877995	0.07853156649835993	1.462959480561337	0.4345528684106753	0.08340389402863446	1.221744126425493	0.39014931926194174	0.22222642856552166	1.0420619710818244	0.29369598785758383	0.22355052630861555	0.9387116300810121	0.2785285305793149	0.22041591314738346	0.9016033688395152	0.27941578380376725	0.2147556786027912	0.9233431650445252	0.3043978292328409	
78	1.3	0.33328071780929586	0.9614860267175496	0.41852187313508127	0.327159658258732	0.5400908727282094	0.4855066947897475	0.3156321580833432	0.10504554364571107	0.5165571164206255	0.3106783501122749	0.1009408587407032	0.3409493129209922	0.372556117100545	0.10644786564662383	0.34534143112386817	0.2958712134828933	0.017146121174586453	0.5984757888773161	0.12897131968155473	0.9592215878522191	0.45310182421328415	0.1329867239586713	0.5259525472522014	0.5060790193234296	0.14518651666270177	0.08865238726648711	0.5098887839465441	0.15949519189779568	0.09500863669046844	0.34605155978316476	0.09943696170481758	0.07703804706863386	0.39382652339682417	0.1576989064808415	0.023775078806877507	0.5642115600133358	0.2447463092691327	1.5412480863362685	0.44045642494690984	0.2379601580640382	1.7732766687720791	0.4299496808879405	0.22164622102075007	1.6710897706234829	0.3479670698261172	0.38719212200914466	1.4522961520991582	0.4289846665260193	0.39857356949273826	1.2344221408732607	0.3805407426479982	0.27375127428730517	1.0171576553948818	0.3071953520993239	0.2106283702542489	0.9084003919083495	0.3229440944972334	0.21146965643501253	0.9041627593561216	0.3240217723615862	0.2257113947504641	0.9256022004904758	0.3176774238638689	0.07930362372614948	1.4628375202699284	0.4353747112203425	0.0834735576992447	1.2223431107062646	0.3901528887669614	0.22226405419222053	1.0421142837109978	0.2938823474289163	0.22314312890766227	0.9389450039734847	0.27906541380920163	0.21996569466717913	0.9021960061650856	0.27757778004811634	0.2145861565265842	0.9233330168352432	0.304778626303878	
79	1.3166666666666669	0.3331380236205178	0.9602112760409416	0.4206815333696928	0.3271617990894205	0.5399354819118853	0.4854664048270857	0.31574017783975405	0.1049637727834913	0.5170587402807234	0.3106629348019282	0.10086957072376493	0.34143121204365945	0.3725699592548542	0.10641373533521749	0.34531557518888323	0.2958411029317492	0.0170523339073501	0.5984185208710984	0.12858137005378184	0.9586080643783892	0.4534003035693129	0.13306732894208362	0.525894647110528	0.5060979150281293	0.14525656112022947	0.08901187019758404	0.5098427477833446	0.15850411867590403	0.09301418288098366	0.34896096836639456	0.0994221606117009	0.07703157376076492	0.39378748124197305	0.15749782432181614	0.024251475860815396	0.5634543894472969	0.2446307104209657	1.5421082289109669	0.44027435972250323	0.23739605889712914	1.773295108461654	0.4296638951753938	0.2223622771620773	1.671745167020399	0.3481648157301474	0.387188038191831	1.452291395019534	0.42897985364324964	0.3993765089947293	1.2350551958488871	0.3774239931856562	0.274911589927867	1.0179685440476134	0.3050517847147789	0.21041095444084296	0.9092190951870054	0.3210989808161369	0.21112757193872017	0.9046427004053876	0.32249309718681174	0.22591855846401135	0.9259242607649507	0.3164690717064077	0.08013217750897587	1.462852955852395	0.4361708855086691	0.08355107187687694	1.2229714538940293	0.39014648675371166	0.22215158970810814	1.0421501079394262	0.294075707285031	0.22289124756599527	0.9395356369780583	0.27802190031724894	0.21947315342320756	0.9027313570268095	0.2757417521195461	0.21415393481470643	0.9234213645217342	0.30470493531401716	
80	1.3333333333333333	0.3329462000641211	0.9585322280311198	0.42329655233488983	0.3271593513771259	0.539438693291799	0.4855031131177671	0.31590724672439746	0.10474629089718246	0.5177579794491757	0.31057538228834314	0.10092776479130527	0.3422031106351091	0.3725785414396937	0.10640100545834029	0.34530094279157064	0.29580626038935337	0.016705583371936037	0.5983923200057759	0.12814607732511696	0.9574176378692857	0.4539976562957721	0.1332275708036323	0.5256948052997209	0.5062198744018397	0.14532074919131419	0.08920790678797934	0.5098042827757736	0.15752438625127255	0.09101964962078589	0.35184476024204553	0.09940749380375391	0.07700036236123722	0.39375803613888044	0.1572194050498832	0.02491527412779211	0.5623818751450915	0.24460121016442893	1.5429809833874086	0.4401319270058503	0.23705726417588702	1.7732719646654935	0.429496217879826	0.22290744093338594	1.6722638108451926	0.3482831331661933	0.3871844491832227	1.452294617875171	0.42895682139825847	0.4007843868678076	1.235918595240121	0.37327225691910193	0.276563156732214	1.0189626182421043	0.3024060946760612	0.21006587059927798	0.9094404596013484	0.31841491287599527	0.21083275907828924	0.9042953199350864	0.32034084410812336	0.22572365623316448	0.9257471646583497	0.31621960629457035	0.08084999945715088	1.4629111948634825	0.4365134586040279	0.08360644415988674	1.2235370600779156	0.3901403998932328	0.22179168770665353	1.042144573201708	0.29399717372768197	0.22319466351752018	0.9405289426554848	0.27457083411776434	0.21920436223938816	0.9031243260680312	0.27334844826468574	0.21366978233663894	0.9235920070194736	0.3040509095917641	
81	1.35	0.3326679669434756	0.9566734379451259	0.42618259405186487	0.3271595834573262	0.5387843617457133	0.4856139651722195	0.31613969872376174	0.10435417185056503	0.5187257351966811	0.31037996803754725	0.10124902245682407	0.3427419872943664	0.3725810983093576	0.1064156347442909	0.3452887982438757	0.29576881885154727	0.016064338950107407	0.5984404133315817	0.1276960372920881	0.955674042087628	0.45485727007306864	0.13347151001225263	0.5253198371661478	0.506438999553786	0.14537273267436823	0.08918450726363503	0.5097867276179523	0.1566841665048507	0.08928593629524616	0.3543307079158125	0.09939977475560853	0.07694924600257304	0.39373829493411067	0.1569035985850419	0.025665220227977924	0.561162892919757	0.24466194840984018	1.5435145821389324	0.44003951173452516	0.2369599363921503	1.7731983700603478	0.42947836995756206	0.2232067052818696	1.6724924717195508	0.348338631696732	0.3871798713848421	1.4523073663715769	0.42893329507388334	0.40256910227188014	1.237091091500074	0.36868894093702514	0.2784736023995112	1.0200845214845902	0.2994794983879935	0.2101645498552826	0.9081809853446102	0.3156708087258241	0.2111281954034278	0.9026282592755582	0.3178525035199769	0.2257377973350213	0.9252001434395106	0.3170011445776593	0.0812894234090916	1.4629198308603701	0.4360709097656833	0.08361862064756317	1.2239833920356793	0.39015436738557474	0.22136461555810222	1.04200756527702	0.2935174602578007	0.2248216436049708	0.9418749640080696	0.26880983121465507	0.22000619597796683	0.9033513266074603	0.26980694667125527	0.21357185909192106	0.9235414429400404	0.3027123475269674	
